#!OML:ASF F:\VICON\USERDATA\INSTALL\rory3\rory3.ASF
:FULLY-SPECIFIED
:DEGREES
1695
root 1.06812 16.5594 4.75069 16.1191 1.44083 -9.9463
lowerback 3.22399 -2.26584 5.55054
upperback -5.97352 -2.37278 4.01397
thorax -8.1683 -1.36961 1.38076
lowerneck -14.6121 -6.54464 -7.85436
upperneck 30.4417 -9.54862 6.56813
head 13.4021 -4.29609 2.37382
rclavicle -5.91136e-014 4.51241e-014
rhumerus -33.6302 16.6542 -85.4087
rradius 58.4986
rwrist 7.33358
rhand -20.7183 -36.2324
rfingers 7.12502
rthumb 5.64631 -786.137
lclavicle -5.91136e-014 4.51241e-014
lhumerus -50.9795 -5.31847 86.6255
lradius 71.2311
lwrist -2.85239
lhand -30.6724 -43.4682
lfingers 7.12502
lthumb -3.96675 -13.5254
rfemur -33.573 11.6545 27.9862
rtibia 47.0898
rfoot -20.4362 -13.3757
rtoes -15.1563
lfemur -87.5192 6.89474 -14.6419
ltibia 134.712
lfoot -16.487 2.7735
ltoes -8.34634
1696
root 0.960991 16.3793 4.73645 16.0201 1.60387 -10.0323
lowerback 3.12433 -2.22206 4.35191
upperback -5.90873 -2.40111 4.1913
thorax -7.96892 -1.3032 2.22479
lowerneck -14.2978 -6.7843 -8.14727
upperneck 29.9676 -9.93803 6.98711
head 13.217 -4.45908 2.52373
rclavicle -3.90115e-014 3.00165e-014
rhumerus -34.0109 15.8284 -85.0447
rradius 58.9301
rwrist 6.67461
rhand -21.4576 -35.5124
rfingers 7.12502
rthumb 4.93253 -785.435
lclavicle -3.90115e-014 3.00165e-014
lhumerus -50.5519 -5.63442 87.1536
lradius 71.252
lwrist -3.46877
lhand -30.706 -43.3753
lfingers 7.12502
lthumb -3.99925 -13.4331
rfemur -34.2566 12.1139 28.6521
rtibia 48.711
rfoot -22.6278 -15.4095
rtoes -12.7927
lfemur -87.2299 6.28445 -14.6955
ltibia 133.325
lfoot -16.4947 1.61087
ltoes -8.06447
1697
root 0.885043 16.2147 4.71983 16.5496 2.3416 -10.2676
lowerback 2.17556 -2.35176 4.08118
upperback -5.91996 -2.65512 4.2977
thorax -7.40589 -1.40944 2.46051
lowerneck -14.2942 -6.96285 -8.27857
upperneck 29.564 -10.2358 7.32176
head 13.1075 -4.56586 2.62013
rclavicle -1.68967e-014 5.36719e-015
rhumerus -34.0778 14.9263 -84.6442
rradius 59.212
rwrist 6.3123
rhand -21.4506 -36.2213
rfingers 7.12502
rthumb 4.93931 -786.144
lclavicle -1.68967e-014 5.36719e-015
lhumerus -50.0927 -6.0023 87.4945
lradius 71.5812
lwrist -4.10288
lhand -30.5062 -43.0342
lfingers 7.12502
lthumb -3.80633 -13.0885
rfemur -35.707 11.9955 29.3196
rtibia 50.356
rfoot -23.9188 -17.1844
rtoes -12.1677
lfemur -87.6003 4.27503 -14.4822
ltibia 131.866
lfoot -16.0664 1.1192
ltoes -8.24909
1698
root 0.811252 16.042 4.70897 17.1637 2.8075 -11.9516
lowerback 1.64398 -2.33639 5.23734
upperback -6.25915 -2.56028 4.76516
thorax -7.50842 -1.41789 2.29635
lowerneck -14.5385 -7.09705 -8.34319
upperneck 29.7195 -10.4243 7.3519
head 13.2509 -4.64385 2.60395
rclavicle -1.04362e-014 -2.06736e-014
rhumerus -34.7644 14.0985 -84.3317
rradius 59.6863
rwrist 6.5387
rhand -21.4984 -36.6759
rfingers 7.12502
rthumb 4.89308 -786.599
lclavicle -1.04362e-014 -2.06736e-014
lhumerus -50.4068 -6.2012 87.7697
lradius 72.3867
lwrist -4.74279
lhand -30.2574 -43.4001
lfingers 7.12502
lthumb -3.56602 -13.4502
rfemur -37.4286 12.8263 31.3299
rtibia 52.0427
rfoot -24.1911 -18.6702
rtoes -15.8478
lfemur -88.4111 4.89337 -12.6991
ltibia 130.741
lfoot -16.2018 -0.774625
ltoes -6.82998
1699
root 0.777855 15.9081 4.70111 17.5025 3.64028 -13.6558
lowerback 0.685885 -2.46026 7.02693
upperback -5.9987 -2.72602 5.16597
thorax -6.76152 -1.57792 1.68079
lowerneck -15.234 -7.30498 -8.46124
upperneck 29.5178 -10.6981 7.577
head 13.3674 -4.72861 2.63882
rclavicle 4.2366e-014 -4.09496e-014
rhumerus -34.5998 13.2293 -83.7811
rradius 60.3895
rwrist 6.99714
rhand -21.5334 -36.5855
rfingers 7.12502
rthumb 4.85935 -786.51
lclavicle 4.2366e-014 -4.09496e-014
lhumerus -49.8353 -6.09726 87.7232
lradius 73.3579
lwrist -5.82221
lhand -30.1127 -44.2727
lfingers 7.12502
lthumb -3.42627 -14.3205
rfemur -38.8697 13.1153 33.3611
rtibia 53.7974
rfoot -24.691 -19.2427
rtoes -14.5273
lfemur -88.6353 4.1778 -10.7025
ltibia 129.466
lfoot -16.1067 -1.38359
ltoes -4.93696
1700
root 0.745656 15.7756 4.6858 17.5194 4.08121 -15.0584
lowerback 0.494539 -2.5366 8.40318
upperback -5.85145 -2.7894 5.45531
thorax -6.57004 -1.66724 1.22078
lowerneck -15.6922 -7.41344 -8.54012
upperneck 29.3719 -10.8625 7.80677
head 13.4436 -4.76754 2.6962
rclavicle 5.889e-014 -2.98177e-014
rhumerus -34.7173 12.4279 -83.2383
rradius 61.2657
rwrist 7.16924
rhand -21.2322 -36.8965
rfingers 7.12502
rthumb 5.15018 -786.814
lclavicle 5.889e-014 -2.98177e-014
lhumerus -49.6219 -5.97454 87.6456
lradius 74.449
lwrist -7.21493
lhand -30.3208 -44.6687
lfingers 7.12502
lthumb -3.62729 -14.7198
rfemur -40.0134 13.5614 35.0265
rtibia 55.6194
rfoot -25.2452 -19.5541
rtoes -15.7158
lfemur -88.3356 3.71302 -8.99711
ltibia 128.198
lfoot -16.2874 -0.821526
ltoes -6.78282
1701
root 0.708239 15.6558 4.66784 17.0576 3.90246 -15.1736
lowerback 0.99372 -2.61132 8.18925
upperback -5.62516 -2.85864 5.41059
thorax -6.60571 -1.68793 1.31072
lowerneck -15.8915 -7.46063 -8.58542
upperneck 29.0613 -10.9207 7.95415
head 13.3752 -4.77704 2.74036
rclavicle 3.84648e-014 -6.91771e-014
rhumerus -34.7145 11.8011 -82.6533
rradius 62.0522
rwrist 7.01058
rhand -21.019 -37.6213
rfingers 7.12502
rthumb 5.35605 -787.534
lclavicle 3.84648e-014 -6.91771e-014
lhumerus -49.549 -5.93308 87.6686
lradius 76.0852
lwrist -7.13745
lhand -29.8259 -44.3041
lfingers 7.12502
lthumb -3.14932 -14.3476
rfemur -40.5617 13.9752 35.3477
rtibia 57.4308
rfoot -25.6799 -20.0747
rtoes -15.6718
lfemur -86.8199 2.90593 -8.68677
ltibia 126.629
lfoot -17.6975 1.83424
ltoes -16.0904
1702
root 0.677984 15.5788 4.66811 16.3717 3.69614 -14.6502
lowerback 1.32576 -2.74471 7.4505
upperback -5.30429 -3.07259 5.15848
thorax -6.42289 -1.75496 1.46489
lowerneck -15.5938 -7.61354 -8.78679
upperneck 28.4955 -11.1392 8.2191
head 13.1322 -4.87891 2.83881
rclavicle -3.17559e-014 -5.96354e-015
rhumerus -34.7335 11.2819 -82.0792
rradius 62.8661
rwrist 6.78543
rhand -21.0307 -38.1054
rfingers 7.12502
rthumb 5.34475 -788.018
lclavicle -3.17559e-014 -5.96354e-015
lhumerus -49.5756 -5.99478 87.725
lradius 77.7918
lwrist -6.75028
lhand -29.9088 -44.2585
lfingers 7.12502
lthumb -3.22943 -14.3033
rfemur -40.6975 14.0086 35.0509
rtibia 58.9964
rfoot -26.5038 -20.1792
rtoes -15.7956
lfemur -84.7558 1.54745 -8.95423
ltibia 124.791
lfoot -17.6605 2.47037
ltoes -15.4871
